<svg width="1204" height="292" viewBox="0 0 1204 292" fill="none" xmlns="http://www.w3.org/2000/svg">
<rect x="338.277" y="223.108" width="293.264" height="46.1385" fill="#383838"/>
<rect x="338.277" y="269.247" width="293.264" height="22.7532" fill="#C2AD82"/>
<path d="M647.026 0.948059H302.251V248.706H1012.97V0.948059H799.03L721.29 14.8528L647.026 0.948059Z" fill="#515151"/>
<circle cx="820.836" cy="123.247" r="96.0693" fill="#212020"/>
<circle cx="820.836" cy="122.615" r="63.8355" fill="#383838"/>
<path d="M302.883 0.637764L246 0V9.24671H287.659V249.022H302.883V0.637764Z" fill="#C4C4C4"/>
<path d="M65.1006 238.632C61.5146 243.431 57.2695 247.175 52.3652 249.864C47.5137 252.501 42.0557 253.74 35.9912 253.582C31.1396 253.477 27.1055 252.422 23.8887 250.418C20.6719 248.414 18.167 245.804 16.374 242.587C14.5811 239.37 13.4209 235.731 12.8936 231.671C12.4189 227.558 12.4189 223.365 12.8936 219.094L21.7529 166.412H31.0869L22.2275 219.331C21.8584 222.39 21.7529 225.448 21.9111 228.507C22.1221 231.565 22.7812 234.334 23.8887 236.812C24.9961 239.238 26.6309 241.242 28.793 242.824C31.0078 244.406 33.9609 245.25 37.6523 245.355C40.5527 245.461 43.5059 245.145 46.5117 244.406C49.5703 243.615 52.418 242.455 55.0547 240.926C57.7441 239.344 60.0908 237.419 62.0947 235.151C64.1514 232.831 65.6279 230.168 66.5244 227.162L76.8076 166.412H86.3789L71.4287 252H62.6484L65.1006 238.632ZM163.74 229.693C164.057 226.793 163.556 224.367 162.237 222.416C160.972 220.465 159.258 218.83 157.096 217.512C154.986 216.193 152.64 215.139 150.056 214.348C147.524 213.557 145.178 212.897 143.016 212.37C140.959 211.843 138.823 211.263 136.608 210.63C134.394 209.997 132.205 209.232 130.043 208.336C127.934 207.439 125.93 206.411 124.031 205.251C122.186 204.091 120.551 202.72 119.127 201.138C117.756 199.556 116.675 197.763 115.884 195.759C115.146 193.702 114.855 191.355 115.014 188.719C115.172 185.924 115.778 183.393 116.833 181.125C117.94 178.857 119.338 176.827 121.025 175.034C122.766 173.241 124.743 171.712 126.958 170.446C129.173 169.128 131.52 168.047 133.998 167.203C136.477 166.359 138.981 165.753 141.513 165.384C144.097 164.962 146.602 164.777 149.027 164.83C152.93 164.883 156.674 165.463 160.26 166.57C163.898 167.625 167.089 169.207 169.831 171.316C172.573 173.426 174.735 176.089 176.317 179.306C177.952 182.47 178.743 186.188 178.69 190.459L169.356 190.38C169.462 187.479 168.935 184.948 167.774 182.786C166.614 180.624 165.059 178.831 163.107 177.407C161.209 175.931 158.994 174.823 156.463 174.085C153.932 173.347 151.348 172.951 148.711 172.898C146.232 172.846 143.622 173.109 140.88 173.689C138.19 174.217 135.659 175.087 133.286 176.3C130.966 177.513 128.988 179.121 127.354 181.125C125.719 183.129 124.743 185.555 124.427 188.402C124.11 191.25 124.585 193.597 125.851 195.442C127.169 197.288 128.883 198.817 130.992 200.03C133.102 201.19 135.396 202.113 137.874 202.799C140.405 203.432 142.752 204.012 144.914 204.539C147.023 205.066 149.212 205.673 151.479 206.358C153.747 206.991 155.936 207.782 158.045 208.731C160.207 209.681 162.237 210.788 164.136 212.054C166.034 213.267 167.669 214.717 169.04 216.404C170.411 218.039 171.466 219.911 172.204 222.021C172.942 224.13 173.232 226.503 173.074 229.14C172.916 232.093 172.257 234.756 171.097 237.129C169.989 239.502 168.539 241.611 166.746 243.457C165.006 245.25 162.949 246.806 160.576 248.124C158.256 249.442 155.804 250.523 153.22 251.367C150.688 252.158 148.052 252.738 145.31 253.107C142.62 253.477 140.01 253.635 137.479 253.582C133.576 253.529 129.727 253.002 125.93 252C122.133 250.945 118.731 249.363 115.726 247.254C112.772 245.145 110.373 242.508 108.527 239.344C106.734 236.127 105.864 232.33 105.917 227.953H115.251C115.356 231.117 116.042 233.807 117.308 236.021C118.626 238.236 120.313 240.056 122.37 241.479C124.479 242.851 126.853 243.879 129.489 244.564C132.179 245.197 134.947 245.54 137.795 245.593C140.326 245.593 143.042 245.355 145.942 244.881C148.843 244.354 151.532 243.483 154.011 242.271C156.542 241.005 158.704 239.344 160.497 237.287C162.29 235.23 163.371 232.699 163.74 229.693ZM232.796 253.582C227.048 253.424 222.038 252.158 217.767 249.785C213.495 247.412 209.988 244.301 207.246 240.451C204.557 236.602 202.632 232.198 201.472 227.241C200.312 222.284 199.995 217.169 200.522 211.896L200.918 208.415C201.393 204.776 202.236 201.164 203.449 197.578C204.715 193.992 206.297 190.564 208.195 187.295C210.094 184.025 212.309 180.993 214.84 178.198C217.371 175.403 220.166 173.004 223.225 171C226.336 168.996 229.685 167.44 233.271 166.333C236.856 165.226 240.627 164.725 244.582 164.83C250.014 164.988 254.654 166.201 258.504 168.469C262.354 170.736 265.438 173.689 267.759 177.328C270.132 180.967 271.74 185.106 272.584 189.747C273.48 194.388 273.665 199.16 273.138 204.064L272.426 209.839H210.252L209.856 211.737C209.276 215.745 209.329 219.727 210.015 223.682C210.753 227.637 212.124 231.223 214.128 234.439C216.132 237.604 218.742 240.214 221.959 242.271C225.229 244.274 229.078 245.355 233.508 245.514C238.729 245.725 243.501 244.775 247.825 242.666C252.202 240.557 256.21 237.709 259.849 234.123L265.465 238.632C261.352 243.589 256.474 247.359 250.831 249.943C245.188 252.475 239.177 253.688 232.796 253.582ZM244.107 172.898C239.836 172.74 235.96 173.479 232.479 175.113C228.999 176.748 225.888 178.937 223.146 181.679C220.456 184.368 218.136 187.479 216.185 191.013C214.233 194.546 212.651 198.132 211.438 201.771L263.883 201.85L264.12 200.663C264.595 197.288 264.516 193.966 263.883 190.696C263.25 187.427 262.063 184.5 260.323 181.916C258.636 179.279 256.421 177.144 253.679 175.509C250.937 173.874 247.746 173.004 244.107 172.898Z" fill="black"/>
<path d="M1042.03 172.726C1042.82 167.663 1043.88 162.469 1045.19 157.143C1046.57 151.764 1048.2 146.464 1050.1 141.243C1052.05 135.97 1054.29 130.828 1056.82 125.818C1059.41 120.809 1062.31 116.089 1065.52 111.659C1068.74 107.177 1072.33 103.09 1076.28 99.3984C1080.24 95.707 1084.59 92.5166 1089.33 89.8271L1090.99 96.3135C1084.93 100.532 1079.66 105.568 1075.17 111.422C1070.74 117.223 1066.95 123.498 1063.78 130.248C1060.67 136.945 1058.11 143.906 1056.11 151.131C1054.16 158.303 1052.63 165.369 1051.52 172.33L1051.29 173.912C1050.71 177.814 1050.2 182.007 1049.78 186.489C1049.41 190.972 1049.25 195.56 1049.31 200.253C1049.36 204.946 1049.68 209.666 1050.26 214.412C1050.89 219.105 1051.87 223.614 1053.18 227.938C1054.55 232.263 1056.35 236.323 1058.56 240.12C1060.83 243.917 1063.62 247.213 1066.95 250.008L1064.26 256.099C1060.36 253.093 1056.98 249.586 1054.13 245.578C1051.34 241.623 1048.99 237.352 1047.09 232.764C1045.25 228.176 1043.8 223.377 1042.74 218.367C1041.74 213.305 1041.05 208.242 1040.69 203.18C1040.32 198.064 1040.24 193.055 1040.45 188.15C1040.66 183.193 1041.11 178.474 1041.79 173.991L1042.03 172.726ZM1170.97 173.438C1170.17 178.5 1169.12 183.694 1167.8 189.021C1166.48 194.294 1164.88 199.541 1162.98 204.762C1161.08 209.982 1158.86 215.098 1156.33 220.107C1153.85 225.117 1151.01 229.837 1147.79 234.267C1144.62 238.749 1141.09 242.862 1137.19 246.606C1133.34 250.403 1129.09 253.673 1124.45 256.415L1122.32 249.929C1128.33 245.763 1133.52 240.727 1137.9 234.82C1142.33 228.967 1146.1 222.665 1149.21 215.915C1152.38 209.165 1154.93 202.178 1156.89 194.953C1158.84 187.729 1160.37 180.662 1161.47 173.754L1161.71 172.172C1162.29 168.322 1162.77 164.156 1163.13 159.674C1163.56 155.191 1163.71 150.604 1163.61 145.91C1163.56 141.217 1163.24 136.497 1162.66 131.751C1162.08 127.005 1161.1 122.47 1159.73 118.146C1158.36 113.769 1156.57 109.708 1154.35 105.964C1152.14 102.167 1149.37 98.8711 1146.05 96.0762L1148.82 89.9854C1152.67 92.9912 1155.99 96.498 1158.78 100.506C1161.63 104.461 1163.98 108.732 1165.82 113.32C1167.72 117.908 1169.17 122.733 1170.17 127.796C1171.23 132.806 1171.94 137.868 1172.31 142.983C1172.68 148.099 1172.73 153.135 1172.47 158.092C1172.26 163.049 1171.84 167.742 1171.2 172.172L1170.97 173.438Z" fill="black"/>
</svg>
